<?xml version="1.0" encoding="utf-8"?>
<!-- Generator: Adobe Illustrator 19.1.0, SVG Export Plug-In . SVG Version: 6.00 Build 0)  -->
<svg version="1.1" id="Layer_1" xmlns="http://www.w3.org/2000/svg" xmlns:xlink="http://www.w3.org/1999/xlink" x="0px" y="0px"
	 viewBox="0 0 153 46.8" style="enable-background:new 0 0 153 46.8;" xml:space="preserve">
<style type="text/css">
	.st0{fill:#5C6670;}
	.st1{fill:#FF6C36;}
	.st2{fill:#A9A8A9;}
	.st3{fill:#3A4F59;}
	.st4{fill:#985F35;}
</style>
<g>
	<g>
		<polygon class="st0" points="10.7,39.1 14.8,31.9 19,31.9 31.6,10.2 27.4,3 4.4,42.8 12.8,42.8 14.9,39.1 		"/>
		<polygon class="st1" points="31.6,17.5 27.4,24.7 31.6,31.9 39.9,31.9 		"/>
		<polygon class="st2" points="48.3,39.1 44.2,31.9 39.9,31.9 42.1,35.6 33.8,35.6 31.6,31.9 19,31.9 14.9,39.1 		"/>
		<polygon class="st3" points="10.7,39.1 14.9,39.1 19,31.9 14.8,31.9 		"/>
		<polygon class="st4" points="42.1,35.6 39.9,31.9 31.6,31.9 33.8,35.6 		"/>
	</g>
	<g>
		<path class="st2" d="M59.4,17.8l-5.2,14h3.5l0.9-2.6h5.1l0.9,2.6H68l-5.3-14H59.4z M59.3,26.9l1.8-5.3l1.8,5.3H59.3z"/>
		<path class="st2" d="M96.1,23.2c-1.2-0.2-2.8-0.5-2.8-1.7c0-0.7,0.5-1.3,2.2-1.3c1.8,0,2.3,0.8,2.4,1.5h3.1c0-2-1.4-4.2-5.3-4.2
			c-4.2,0-5.7,1.9-5.7,4.1c0,3.1,2.1,3.8,4.6,4.3c1.7,0.4,3.6,0.7,3.6,2.2c0,1.2-1.3,1.4-2.5,1.4c-2.4,0-2.8-1.4-2.8-2.2h-3.3
			c0,1.9,0.9,4.9,6.1,4.9c5.6,0,5.9-3.5,5.9-4.7C101.5,24.5,99,23.8,96.1,23.2z"/>
		<polygon class="st2" points="119.5,17.8 115.4,17.8 110,23.6 110,17.8 106.7,17.8 106.7,31.9 110,31.9 110,27.4 111.6,25.8 
			115.8,31.9 119.9,31.9 113.9,23.7 		"/>
		<rect x="124.4" y="17.8" class="st2" width="3.3" height="14"/>
		<polygon class="st2" points="142.6,26.6 142.5,26.6 137,17.8 133.7,17.8 133.7,31.9 137,31.9 137,23.1 137,23.1 142.5,31.9 
			145.9,31.9 145.9,17.8 142.6,17.8 		"/>
		<path class="st2" d="M81.8,25.4L81.8,25.4c0.9-0.4,2.4-1.2,2.4-3.5c0-3.6-3.3-4-4.8-4h-7.2v14h3.3v-5.2h2.2l3.6,5.2h4.1l-4.3-6.3
			C81.5,25.5,81.7,25.5,81.8,25.4z M78.7,24.1h-3v-3.6h2.9c1.4,0,2.2,0.4,2.2,1.8C80.8,23.1,80.5,24.1,78.7,24.1z"/>
	</g>
	<g>
		<path class="st0" d="M54.6,42.7h-0.4v-3.6h2.1v0.4h-1.7v1.2h1.5v0.4h-1.5V42.7z"/>
		<path class="st0" d="M59.2,42.7l1.5-3.6H61l1.5,3.6H62l-0.4-1.1h-1.5l-0.4,1.1H59.2z M60.8,39.7c-0.2,0.4-0.3,0.9-0.5,1.2
			l-0.1,0.3h1.2l-0.1-0.3C61.2,40.5,61,40.1,60.8,39.7L60.8,39.7z"/>
		<path class="st0" d="M67.6,39.5c-0.2,0-0.4,0-0.6,0.1c-0.2,0.1-0.3,0.2-0.5,0.3c-0.1,0.1-0.2,0.3-0.3,0.5
			c-0.1,0.2-0.1,0.4-0.1,0.7c0,0.2,0,0.5,0.1,0.6c0.1,0.2,0.2,0.3,0.3,0.4c0.1,0.1,0.3,0.2,0.5,0.3c0.2,0.1,0.4,0.1,0.6,0.1
			c0.1,0,0.1,0,0.2,0c0.1,0,0.1,0,0.2,0c0.1,0,0.1,0,0.2,0c0.1,0,0.1,0,0.2,0v0.4c-0.1,0-0.2,0.1-0.4,0.1c-0.1,0-0.3,0-0.4,0
			c-0.3,0-0.6,0-0.8-0.1c-0.2-0.1-0.4-0.2-0.6-0.4S66,42,65.9,41.7c-0.1-0.2-0.1-0.5-0.1-0.8c0-0.3,0-0.5,0.1-0.8
			c0.1-0.2,0.2-0.4,0.4-0.6c0.2-0.2,0.4-0.3,0.6-0.4c0.2-0.1,0.5-0.1,0.8-0.1c0.1,0,0.1,0,0.2,0c0.1,0,0.1,0,0.2,0
			c0.1,0,0.1,0,0.2,0c0.1,0,0.1,0,0.1,0.1v0.4c-0.1,0-0.2-0.1-0.4-0.1C67.9,39.5,67.8,39.5,67.6,39.5z"/>
		<path class="st0" d="M71.7,42.7l1.5-3.6h0.4l1.5,3.6h-0.5l-0.4-1.1h-1.5l-0.4,1.1H71.7z M73.3,39.7c-0.2,0.4-0.3,0.9-0.5,1.2
			l-0.1,0.3h1.2l-0.1-0.3C73.6,40.5,73.5,40.1,73.3,39.7L73.3,39.7z"/>
		<path class="st0" d="M81.3,40.9c0,0.2,0,0.4-0.1,0.6c-0.1,0.2-0.1,0.3-0.2,0.5c-0.1,0.1-0.2,0.3-0.4,0.4c-0.2,0.1-0.3,0.2-0.5,0.2
			c-0.1,0-0.2,0.1-0.4,0.1c-0.1,0-0.3,0-0.5,0h-0.8v-3.6h0.8c0.2,0,0.3,0,0.5,0c0.1,0,0.3,0,0.4,0.1c0.2,0.1,0.4,0.1,0.5,0.2
			c0.2,0.1,0.3,0.2,0.4,0.4c0.1,0.1,0.2,0.3,0.2,0.5C81.3,40.5,81.3,40.7,81.3,40.9z M80.9,40.9c0-0.3-0.1-0.6-0.2-0.8
			c-0.2-0.2-0.4-0.4-0.7-0.5c-0.1,0-0.2-0.1-0.4-0.1c-0.1,0-0.3,0-0.5,0h-0.3v2.8h0.3c0.2,0,0.3,0,0.5,0c0.1,0,0.3,0,0.4-0.1
			c0.3-0.1,0.5-0.2,0.7-0.5C80.8,41.5,80.9,41.3,80.9,40.9z"/>
		<path class="st0" d="M85.4,42.3h1.8v0.4H85v-3.6h2.2v0.4h-1.7v1.2H87v0.4h-1.5V42.3z"/>
		<path class="st0" d="M95.1,40.1c0,0.1,0,0.2,0.1,0.3c0,0.1,0.1,0.1,0.2,0.2c0.1,0,0.2,0.1,0.3,0.1c0.1,0,0.2,0.1,0.3,0.1
			c0.1,0,0.3,0.1,0.4,0.1c0.1,0,0.3,0.1,0.4,0.2c0.1,0.1,0.2,0.2,0.3,0.3s0.1,0.3,0.1,0.4c0,0.2,0,0.3-0.1,0.5
			c-0.1,0.1-0.2,0.2-0.3,0.3c-0.1,0.1-0.3,0.2-0.4,0.2c-0.2,0-0.4,0.1-0.6,0.1c-0.1,0-0.2,0-0.3,0c-0.1,0-0.2,0-0.3,0
			c-0.1,0-0.2,0-0.2-0.1c-0.1,0-0.1,0-0.2-0.1v-0.4c0.1,0,0.1,0.1,0.2,0.1c0.1,0,0.2,0,0.2,0.1c0.1,0,0.2,0,0.3,0c0.1,0,0.2,0,0.2,0
			c0.1,0,0.2,0,0.4,0c0.1,0,0.2-0.1,0.3-0.1c0.1,0,0.2-0.1,0.2-0.2c0-0.1,0.1-0.2,0.1-0.3c0-0.1,0-0.2-0.1-0.3
			c0-0.1-0.1-0.1-0.2-0.2c-0.1,0-0.2-0.1-0.3-0.1c-0.1,0-0.2-0.1-0.3-0.1c-0.1,0-0.3-0.1-0.4-0.1c-0.1,0-0.3-0.1-0.4-0.2
			c-0.1-0.1-0.2-0.2-0.3-0.3c-0.1-0.1-0.1-0.3-0.1-0.4c0-0.2,0-0.3,0.1-0.5c0.1-0.1,0.2-0.2,0.3-0.3c0.1-0.1,0.2-0.1,0.4-0.2
			c0.1,0,0.3-0.1,0.5-0.1c0.2,0,0.4,0,0.5,0.1c0.2,0,0.3,0.1,0.5,0.1v0.4c-0.1-0.1-0.3-0.1-0.5-0.2c-0.2,0-0.3-0.1-0.5-0.1
			c-0.1,0-0.3,0-0.4,0s-0.2,0.1-0.2,0.1c-0.1,0.1-0.1,0.1-0.1,0.2C95.1,39.9,95.1,40,95.1,40.1z"/>
		<path class="st0" d="M103.9,40.9c0,0.3,0,0.5-0.1,0.7c-0.1,0.2-0.2,0.4-0.3,0.6c-0.1,0.2-0.3,0.3-0.5,0.4
			c-0.2,0.1-0.4,0.1-0.7,0.1c-0.3,0-0.5,0-0.7-0.1c-0.2-0.1-0.4-0.2-0.5-0.4c-0.1-0.2-0.3-0.4-0.3-0.6s-0.1-0.5-0.1-0.7
			c0-0.3,0-0.5,0.1-0.8c0.1-0.2,0.2-0.4,0.3-0.6c0.1-0.2,0.3-0.3,0.5-0.4c0.2-0.1,0.4-0.1,0.7-0.1c0.3,0,0.5,0,0.7,0.1
			c0.2,0.1,0.4,0.2,0.5,0.4c0.1,0.2,0.3,0.4,0.3,0.6C103.9,40.4,103.9,40.7,103.9,40.9z M103.5,40.9c0-0.2,0-0.5-0.1-0.6
			c-0.1-0.2-0.2-0.3-0.3-0.5c-0.1-0.1-0.2-0.2-0.4-0.3c-0.2-0.1-0.3-0.1-0.5-0.1s-0.3,0-0.5,0.1c-0.1,0.1-0.3,0.2-0.4,0.3
			c-0.1,0.1-0.2,0.3-0.3,0.5c-0.1,0.2-0.1,0.4-0.1,0.6c0,0.2,0,0.5,0.1,0.6c0.1,0.2,0.2,0.3,0.3,0.5c0.1,0.1,0.2,0.2,0.4,0.3
			s0.3,0.1,0.5,0.1c0.2,0,0.3,0,0.5-0.1s0.3-0.2,0.4-0.3c0.1-0.1,0.2-0.3,0.3-0.5C103.4,41.4,103.5,41.2,103.5,40.9z"/>
		<path class="st0" d="M108,39.1v3.2h1.7v0.4h-2.2v-3.6H108z"/>
		<path class="st0" d="M114.8,42.4c0.1,0,0.2,0,0.3,0c0.1,0,0.2-0.1,0.3-0.1c0.1-0.1,0.1-0.1,0.2-0.2c0-0.1,0.1-0.2,0.1-0.3
			c0-0.1,0-0.1,0-0.2c0-0.1,0-0.1,0-0.2v-2.2h0.4v2.2c0,0.1,0,0.2,0,0.3c0,0.1,0,0.2,0,0.3c0,0.1-0.1,0.3-0.2,0.4
			c-0.1,0.1-0.2,0.2-0.3,0.3c-0.1,0.1-0.2,0.1-0.4,0.2c-0.2,0-0.3,0.1-0.5,0.1c-0.2,0-0.4,0-0.5-0.1c-0.1,0-0.3-0.1-0.4-0.2
			c-0.1-0.1-0.2-0.2-0.3-0.3c-0.1-0.1-0.1-0.2-0.2-0.3c0-0.1,0-0.2-0.1-0.3c0-0.1,0-0.2,0-0.3v-2.2h0.4v2.2c0,0.1,0,0.2,0,0.2
			c0,0.1,0,0.2,0.1,0.2c0.1,0.2,0.2,0.3,0.3,0.4C114.3,42.3,114.5,42.4,114.8,42.4z"/>
		<path class="st0" d="M121.2,42.7h-0.4v-3.2h-1.2v-0.4h2.8v0.4h-1.2V42.7z"/>
		<path class="st0" d="M125.9,42.7v-3.6h0.4v3.6H125.9z"/>
		<path class="st0" d="M133.3,40.9c0,0.3,0,0.5-0.1,0.7s-0.2,0.4-0.3,0.6c-0.1,0.2-0.3,0.3-0.5,0.4c-0.2,0.1-0.4,0.1-0.7,0.1
			c-0.3,0-0.5,0-0.7-0.1c-0.2-0.1-0.4-0.2-0.5-0.4c-0.1-0.2-0.3-0.4-0.3-0.6c-0.1-0.2-0.1-0.5-0.1-0.7c0-0.3,0-0.5,0.1-0.8
			c0.1-0.2,0.2-0.4,0.3-0.6c0.1-0.2,0.3-0.3,0.5-0.4c0.2-0.1,0.4-0.1,0.7-0.1c0.3,0,0.5,0,0.7,0.1c0.2,0.1,0.4,0.2,0.5,0.4
			c0.1,0.2,0.3,0.4,0.3,0.6C133.3,40.4,133.3,40.7,133.3,40.9z M132.9,40.9c0-0.2,0-0.5-0.1-0.6c-0.1-0.2-0.1-0.3-0.3-0.5
			c-0.1-0.1-0.2-0.2-0.4-0.3c-0.2-0.1-0.3-0.1-0.5-0.1c-0.2,0-0.3,0-0.5,0.1c-0.2,0.1-0.3,0.2-0.4,0.3c-0.1,0.1-0.2,0.3-0.3,0.5
			c-0.1,0.2-0.1,0.4-0.1,0.6c0,0.2,0,0.5,0.1,0.6c0.1,0.2,0.2,0.3,0.3,0.5c0.1,0.1,0.2,0.2,0.4,0.3c0.2,0.1,0.3,0.1,0.5,0.1
			c0.2,0,0.3,0,0.5-0.1c0.1-0.1,0.3-0.2,0.4-0.3c0.1-0.1,0.2-0.3,0.3-0.5C132.9,41.4,132.9,41.2,132.9,40.9z"/>
		<path class="st0" d="M138.9,41.1c0.2,0.3,0.4,0.6,0.7,1h0c0-0.3,0-0.7,0-1.1v-1.9h0.4v3.6h-0.4l-1.4-2c-0.2-0.3-0.5-0.7-0.6-1h0
			c0,0.3,0,0.7,0,1.1v1.8H137v-3.6h0.4L138.9,41.1z"/>
		<path class="st0" d="M144.1,40.1c0,0.1,0,0.2,0.1,0.3c0,0.1,0.1,0.1,0.2,0.2c0.1,0,0.2,0.1,0.3,0.1c0.1,0,0.2,0.1,0.3,0.1
			c0.1,0,0.3,0.1,0.4,0.1c0.1,0,0.3,0.1,0.4,0.2c0.1,0.1,0.2,0.2,0.3,0.3c0.1,0.1,0.1,0.3,0.1,0.4c0,0.2,0,0.3-0.1,0.5
			c-0.1,0.1-0.2,0.2-0.3,0.3c-0.1,0.1-0.3,0.2-0.4,0.2c-0.2,0-0.4,0.1-0.6,0.1c-0.1,0-0.2,0-0.3,0c-0.1,0-0.2,0-0.3,0
			c-0.1,0-0.2,0-0.2-0.1c-0.1,0-0.1,0-0.2-0.1v-0.4c0.1,0,0.1,0.1,0.2,0.1c0.1,0,0.2,0,0.2,0.1c0.1,0,0.2,0,0.3,0c0.1,0,0.2,0,0.2,0
			c0.1,0,0.2,0,0.4,0c0.1,0,0.2-0.1,0.3-0.1s0.2-0.1,0.2-0.2c0-0.1,0.1-0.2,0.1-0.3c0-0.1,0-0.2-0.1-0.3c0-0.1-0.1-0.1-0.2-0.2
			c-0.1,0-0.2-0.1-0.3-0.1c-0.1,0-0.2-0.1-0.3-0.1c-0.1,0-0.3-0.1-0.4-0.1c-0.1,0-0.3-0.1-0.4-0.2c-0.1-0.1-0.2-0.2-0.3-0.3
			c-0.1-0.1-0.1-0.3-0.1-0.4c0-0.2,0-0.3,0.1-0.5c0.1-0.1,0.2-0.2,0.3-0.3c0.1-0.1,0.2-0.1,0.4-0.2c0.1,0,0.3-0.1,0.5-0.1
			c0.2,0,0.4,0,0.5,0.1c0.2,0,0.3,0.1,0.5,0.1v0.4c-0.1-0.1-0.3-0.1-0.5-0.2c-0.2,0-0.3-0.1-0.5-0.1c-0.1,0-0.3,0-0.4,0
			s-0.2,0.1-0.2,0.1c-0.1,0.1-0.1,0.1-0.1,0.2C144.1,39.9,144.1,40,144.1,40.1z"/>
	</g>
</g>
</svg>
